# xmcd
#
# Track frame offsets:
#	183
#	15770
#	30958
#	46833
#
# Disc length: 931 seconds
#
# Revision: 0
# Processed by: cddbd v1.4PL0 Copyright (c) Steve Scherf et al.
# Submitted via: EasyCDDAExtractor 4.6.9.1
#
DISCID=1803a104
DTITLE=Lùnapop - 50 Special
DYEAR=1999
DGENRE=Pop
TTITLE0=50 Special (original)
TTITLE1=50 Special (Mid Tempo)
TTITLE2=50 Special (Club Radio Edit)
TTITLE3=50 Special (Extended Club Remix)
EXTD=
EXTT0=
EXTT1=
EXTT2=
EXTT3=
PLAYORDER=
